<svg width="406" height="464" viewBox="0 0 406 464" fill="none" xmlns="http://www.w3.org/2000/svg">
<mask id="mask0_309_193" style="mask-type:alpha" maskUnits="userSpaceOnUse" x="1" y="32" width="405" height="432">
<rect x="1" y="32" width="405" height="432" fill="#D9D9D9"/>
</mask>
<g mask="url(#mask0_309_193)">
<g filter="url(#filter0_f_309_193)">
<path d="M-3.52612 343.5C-14.36 320.069 -24.6927 221.667 -42.026 169L-64.0261 218.5C-72.8594 242.5 -67.9261 285.1 -71.5261 295.5C-75.1261 305.9 -57.5259 415.167 -42.0259 487.5H404.474L437.474 393.5L423.474 280.5C406.307 282.333 386.81 365.895 308.974 382.5C233.974 398.5 186.474 400.5 114.474 382.5C42.4739 364.5 17.9739 390 -3.52612 343.5Z" fill="url(#paint0_linear_309_193)" style="mix-blend-mode:color-dodge"/>
</g>
</g>
<defs>
<filter id="filter0_f_309_193" x="-121.2" y="119.8" width="607.874" height="416.9" filterUnits="userSpaceOnUse" color-interpolation-filters="sRGB">
<feFlood flood-opacity="0" result="BackgroundImageFix"/>
<feBlend mode="normal" in="SourceGraphic" in2="BackgroundImageFix" result="shape"/>
<feGaussianBlur stdDeviation="24.6" result="effect1_foregroundBlur_309_193"/>
</filter>
<linearGradient id="paint0_linear_309_193" x1="161.474" y1="267.5" x2="108.474" y2="442" gradientUnits="userSpaceOnUse">
<stop offset="0.105791" stop-color="#FF0000"/>
<stop offset="0.633354" stop-color="#FF6200"/>
<stop offset="0.890897" stop-color="#FFFB00"/>
</linearGradient>
</defs>
</svg>
